# xmcd
#
# Track frame offsets:
#	150
#	14343
#	27653
#	49343
#	64203
#	82020
#	93963
#	113648
#	124100
#	141213
#	152503
#	168408
#	179708
#	192523
#	204453
#	220983
#	232853
#	251893
#	268423
#	287083
#	297868
#	314140
#	321773
#	337990
#
# Disc length: 4734 seconds
#
# Revision: 1
# Processed by: cddbd v1.4PL0 Copyright (c) Steve Scherf et al.
# Submitted via: audiograbber 1.80.04
#
DISCID=79127c18
DTITLE=Various Artist - Truck and Country Festival
DYEAR=1989
DGENRE=Country
TTITLE0=Tom Astor - Take It Easy - nimm's leicht
TTITLE1=Truck Stop - Arizona - Arizona
TTITLE2=Jonny Hill - Ruf Teddybär eins-vier
TTITLE3=Western Union - Ich möcht' so gern mal nach Nashville
TTITLE4=Gunter Gabriel - Komm' unter meine Decke
TTITLE5=Tom Astor - Hallo, guten Morgen Deutschland
TTITLE6=Gunter Gabriel - Er ist ein Kerl (der 30 Tonner Diesel)
TTITLE7=Jonny Hill - König der Landstraße
TTITLE8=Linda Feller - Du bist das Salz in meiner Suppe
TTITLE9=Nashville Music Company - 14 Räder und ein Lied
TTITLE10=Truck Stop - Ich möcht' so gern Dave Dudley hör'n
TTITLE11=Willie Nelson - On The Road Again
TTITLE12=The Bellamy Brothers - Let Your Love Flow
TTITLE13=Dolly Parton - Jolene
TTITLE14=Eddie Rabbit - Rocky Mountain Music
TTITLE15=Crystal Gale - Don't It Make My Brown Eyes Blue
TTITLE16=Alabama - Mountain Music
TTITLE17=Kenny Rogers - Lucille
TTITLE18=Johnny Cash - Sunday Morning Coming Down
TTITLE19=Waylon Jennings - The Taker
TTITLE20=Billie Jo Spears - Blanket On The Ground
TTITLE21=Dave Dudley - Six Days On The Road
TTITLE22=Bobby Bare - Me And Bobby McGee
TTITLE23=C.W. McCall - Convoy
EXTD=
EXTT0=
EXTT1=
EXTT2=
EXTT3=
EXTT4=
EXTT5=
EXTT6=
EXTT7=
EXTT8=
EXTT9=
EXTT10=
EXTT11=
EXTT12=
EXTT13=
EXTT14=
EXTT15=
EXTT16=
EXTT17=
EXTT18=
EXTT19=
EXTT20=
EXTT21=
EXTT22=
EXTT23=
PLAYORDER=
